<svg width="22" height="20" viewBox="0 0 22 20" fill="none" xmlns="http://www.w3.org/2000/svg">
<path d="M20.0836 7.24894C19.6824 7.19298 19.2994 7.05084 18.9633 6.83309C18.6272 6.61535 18.3466 6.32761 18.1424 5.99131C17.9382 5.65501 17.8156 5.27882 17.7839 4.89073C17.7521 4.50265 17.8119 4.11268 17.9588 3.74987C18.0522 3.51267 18.066 3.25336 17.9982 3.00828C17.9303 2.7632 17.7843 2.54464 17.5806 2.38325C16.6812 1.65813 15.6575 1.08849 14.5551 0.699735C14.304 0.610201 14.0299 0.599014 13.7719 0.667769C13.5139 0.736524 13.285 0.881713 13.1179 1.08265C12.8664 1.3914 12.545 1.64111 12.1781 1.81284C11.8111 1.98458 11.4082 2.07383 11 2.07383C10.5918 2.07383 10.1889 1.98458 9.82195 1.81284C9.455 1.64111 9.13359 1.3914 8.88211 1.08265C8.71503 0.881713 8.48616 0.736524 8.22811 0.667769C7.97007 0.599014 7.696 0.610201 7.44496 0.699735C6.42704 1.05865 5.47531 1.57125 4.62568 2.2182C4.41151 2.38098 4.25725 2.60532 4.18549 2.85836C4.11372 3.11141 4.12822 3.37987 4.22685 3.62443C4.38553 3.99684 4.45109 4.39978 4.41827 4.80091C4.38546 5.20204 4.25518 5.59021 4.03789 5.93427C3.82061 6.27833 3.52236 6.56871 3.16707 6.78211C2.81179 6.99552 2.40936 7.12601 1.99206 7.16311C1.72114 7.19092 1.46668 7.30151 1.26614 7.4786C1.0656 7.65569 0.929574 7.88993 0.878098 8.14681C0.75006 8.75532 0.685562 9.37457 0.685562 9.99538C0.684621 10.5151 0.728319 11.034 0.816211 11.5469C0.859955 11.812 0.993445 12.0559 1.19604 12.2408C1.39864 12.4258 1.65907 12.5415 1.93705 12.5702C2.36351 12.6086 2.77419 12.7445 3.1347 12.9666C3.49521 13.1887 3.79506 13.4905 4.00917 13.8467C4.22328 14.2028 4.34541 14.6031 4.36534 15.0139C4.38526 15.4247 4.30241 15.8341 4.12371 16.2079C4.00676 16.451 3.97775 16.7246 4.04129 16.9854C4.10483 17.2461 4.25726 17.479 4.4744 17.6471C5.3684 18.3591 6.38228 18.9195 7.47247 19.3042C7.61188 19.3506 7.75815 19.3751 7.90567 19.3768C8.10795 19.3764 8.30718 19.3294 8.48665 19.2398C8.66611 19.1502 8.82059 19.0206 8.93712 18.8619C9.1822 18.5191 9.51073 18.2388 9.89419 18.0455C10.2776 17.8523 10.7044 17.7518 11.1375 17.7527C11.5572 17.7533 11.9709 17.8478 12.3457 18.0289C12.7206 18.21 13.0462 18.4726 13.2967 18.7959C13.4633 19.0109 13.6993 19.167 13.968 19.2398C14.2366 19.3127 14.5228 19.2982 14.782 19.1986C15.7788 18.8134 16.7069 18.281 17.5325 17.6207C17.7399 17.4561 17.8876 17.2325 17.9543 16.9822C18.021 16.7319 18.0033 16.4677 17.9038 16.2277C17.7421 15.8601 17.6716 15.4614 17.6978 15.0631C17.7241 14.6649 17.8464 14.2779 18.0551 13.9328C18.2638 13.5877 18.5533 13.2939 18.9005 13.0746C19.2478 12.8553 19.6434 12.7165 20.0561 12.6692C20.3237 12.6337 20.5726 12.5173 20.7667 12.3368C20.9608 12.1564 21.09 11.9213 21.1357 11.6657C21.2461 11.115 21.3059 10.5561 21.3145 9.99538C21.3146 9.40393 21.257 8.81378 21.1425 8.23264C21.0961 7.98262 20.9688 7.75301 20.7787 7.57642C20.5886 7.39983 20.3454 7.28524 20.0836 7.24894ZM14.4382 9.99538C14.4382 10.6483 14.2365 11.2865 13.8587 11.8293C13.4809 12.3722 12.944 12.7953 12.3157 13.0451C11.6875 13.295 10.9962 13.3603 10.3293 13.233C9.66232 13.1056 9.0497 12.7912 8.56887 12.3295C8.08804 11.8679 7.76058 11.2797 7.62792 10.6394C7.49526 9.99904 7.56335 9.33532 7.82357 8.73213C8.0838 8.12895 8.52447 7.61341 9.08987 7.25069C9.65528 6.88797 10.32 6.69437 11 6.69437C11.9119 6.69437 12.7864 7.04215 13.4311 7.66121C14.0759 8.28027 14.4382 9.11989 14.4382 9.99538Z" fill="#7A8FAD"/>
</svg>
