<svg width="24" height="24" viewBox="0 0 24 24" fill="none" xmlns="http://www.w3.org/2000/svg">
<g clip-path="url(#clip0_8889_331)">
<path d="M4.45575 17.1767C4.6234 17.3386 4.84794 17.4282 5.081 17.4262C5.31407 17.4242 5.53702 17.3307 5.70183 17.1659C5.86664 17.0011 5.96013 16.7781 5.96215 16.5451C5.96418 16.312 5.87458 16.0875 5.71266 15.9198L1.89669 12.1037L5.71266 8.28769C5.87458 8.12004 5.96418 7.8955 5.96215 7.66243C5.96013 7.42936 5.86664 7.20641 5.70183 7.0416C5.53702 6.87679 5.31407 6.78331 5.081 6.78128C4.84794 6.77926 4.6234 6.86885 4.45575 7.03078L0.0112346 11.4753C-0.155409 11.642 -0.249023 11.868 -0.249023 12.1037C-0.249023 12.3394 -0.155409 12.5655 0.0112346 12.7322L4.45575 17.1767Z" fill="#7388A9"/>
<path d="M17.7893 17.1767C17.956 17.3434 18.1821 17.437 18.4178 17.437C18.6535 17.437 18.8795 17.3434 19.0462 17.1767L23.4907 12.7322C23.6574 12.5655 23.751 12.3395 23.751 12.1037C23.751 11.868 23.6574 11.642 23.4907 11.4753L19.0462 7.03078C18.8786 6.86885 18.654 6.77926 18.421 6.78128C18.1879 6.78331 17.9649 6.87679 17.8001 7.0416C17.6353 7.20641 17.5418 7.42936 17.5398 7.66243C17.5378 7.8955 17.6274 8.12004 17.7893 8.28769L21.6053 12.1037L17.7893 15.9198C17.6227 16.0865 17.5291 16.3126 17.5291 16.5483C17.5291 16.784 17.6227 17.01 17.7893 17.1767Z" fill="#7388A9"/>
<path d="M8.73406 19.1432C8.84138 19.1892 8.95671 19.2137 9.07347 19.2151C9.19024 19.2166 9.30614 19.195 9.41456 19.1516C9.52298 19.1082 9.62179 19.0439 9.70535 18.9623C9.78891 18.8808 9.85557 18.7835 9.90154 18.6762L15.235 6.23155C15.3278 6.0148 15.3308 5.77003 15.2432 5.55109C15.1557 5.33214 14.9847 5.15696 14.7679 5.06407C14.5512 4.97118 14.3064 4.9682 14.0875 5.05579C13.8685 5.14337 13.6933 5.31435 13.6004 5.5311L8.26703 17.9757C8.221 18.0831 8.19657 18.1984 8.19514 18.3152C8.1937 18.4319 8.21528 18.5478 8.25866 18.6562C8.30203 18.7647 8.36633 18.8635 8.4479 18.947C8.52948 19.0306 8.62671 19.0973 8.73406 19.1432Z" fill="#7388A9"/>
</g>
<defs>
<clipPath id="clip0_8889_331">
<rect width="24" height="24" fill="white"/>
</clipPath>
</defs>
</svg>
