<svg width="23" height="9" viewBox="0 0 23 9" fill="none" xmlns="http://www.w3.org/2000/svg">
<path d="M0.813539 8.08929C0.582885 8.08929 0.404315 8.02604 0.277827 7.89955C0.15878 7.76563 0.0992567 7.58334 0.0992567 7.35268V0.767889C0.0992567 0.529794 0.15878 0.351224 0.277827 0.232176C0.404315 0.105689 0.582885 0.0424448 0.813539 0.0424448C1.04419 0.0424448 1.21904 0.105689 1.33809 0.232176C1.46458 0.351224 1.52782 0.529794 1.52782 0.767889V3.61386H1.55014L4.75325 0.399586C4.8723 0.280539 4.99135 0.191254 5.1104 0.13173C5.22944 0.0722067 5.36337 0.0424448 5.51218 0.0424448C5.72795 0.0424448 5.88048 0.0982483 5.96977 0.209855C6.06649 0.321462 6.1037 0.45167 6.08137 0.600478C6.06649 0.749287 5.99581 0.886936 5.86932 1.01342L2.61041 4.23886L2.62157 3.59154L6.02557 7.05134C6.18182 7.20015 6.26366 7.3564 6.27111 7.52009C6.27855 7.68378 6.22646 7.82143 6.11486 7.93304C6.01069 8.0372 5.85444 8.08929 5.64611 8.08929C5.46754 8.08929 5.32245 8.05208 5.21084 7.97768C5.10668 7.90327 4.98391 7.79539 4.84254 7.65402L1.55014 4.36162H1.52782V7.35268C1.52782 7.58334 1.4683 7.76563 1.34925 7.89955C1.2302 8.02604 1.05163 8.08929 0.813539 8.08929ZM10.7322 8.11161C9.97331 8.11161 9.30739 7.9442 8.73447 7.60938C8.169 7.27456 7.73001 6.80581 7.41751 6.20313C7.10502 5.59302 6.94877 4.87873 6.94877 4.06028C6.94877 3.44273 7.03805 2.88841 7.21662 2.39735C7.39519 1.89884 7.64817 1.47473 7.97555 1.12503C8.31037 0.767888 8.70843 0.496312 9.16974 0.310301C9.63849 0.11685 10.1593 0.0201238 10.7322 0.0201238C11.4986 0.0201238 12.1645 0.187534 12.73 0.522354C13.2955 0.849733 13.7345 1.31476 14.047 1.91744C14.3594 2.52011 14.5157 3.23068 14.5157 4.04912C14.5157 4.66668 14.4264 5.22471 14.2478 5.72322C14.0693 6.22173 13.8126 6.64956 13.4778 7.0067C13.1504 7.36384 12.7523 7.63914 12.2836 7.83259C11.8223 8.0186 11.3051 8.11161 10.7322 8.11161ZM10.7322 6.88393C11.2159 6.88393 11.6251 6.77233 11.9599 6.54911C12.3022 6.3259 12.5626 6.00224 12.7412 5.57814C12.9272 5.15403 13.0202 4.64808 13.0202 4.06028C13.0202 3.16743 12.8193 2.47547 12.4175 1.9844C12.0231 1.49333 11.4614 1.2478 10.7322 1.2478C10.256 1.2478 9.84682 1.3594 9.50456 1.58262C9.1623 1.79839 8.89816 2.11833 8.71215 2.54243C8.53358 2.9591 8.4443 3.46505 8.4443 4.06028C8.4443 4.9457 8.64519 5.63766 9.04697 6.13617C9.44876 6.63468 10.0105 6.88393 10.7322 6.88393ZM16.6826 8.08929C16.452 8.08929 16.2734 8.02604 16.1469 7.89955C16.0279 7.76563 15.9683 7.58334 15.9683 7.35268V0.857174C15.9683 0.619079 16.0316 0.440509 16.1581 0.321462C16.2845 0.194974 16.4631 0.13173 16.6938 0.13173H19.3835C20.2466 0.13173 20.9125 0.340063 21.3812 0.756728C21.85 1.16595 22.0844 1.74259 22.0844 2.48663C22.0844 2.97026 21.9765 3.38692 21.7607 3.73663C21.5524 4.08633 21.2473 4.35418 20.8455 4.54019C20.4438 4.7262 19.9564 4.81921 19.3835 4.81921L19.4839 4.6518H19.8522C20.1573 4.6518 20.4214 4.7262 20.6446 4.87501C20.8753 5.02382 21.0762 5.2582 21.2473 5.57814L22.0844 7.12947C22.1737 7.28572 22.2146 7.43825 22.2071 7.58706C22.1997 7.73586 22.1439 7.85863 22.0397 7.95536C21.9356 8.04464 21.783 8.08929 21.5821 8.08929C21.3812 8.08929 21.2176 8.04836 21.0911 7.96652C20.9646 7.87723 20.853 7.7433 20.7563 7.56473L19.629 5.48885C19.4951 5.23588 19.3351 5.06847 19.1491 4.98662C18.9705 4.89733 18.7399 4.85269 18.4572 4.85269H17.3969V7.35268C17.3969 7.58334 17.3374 7.76563 17.2183 7.89955C17.0993 8.02604 16.9207 8.08929 16.6826 8.08929ZM17.3969 3.79243H19.138C19.6513 3.79243 20.0382 3.68826 20.2987 3.47993C20.5665 3.26416 20.7004 2.94422 20.7004 2.52011C20.7004 2.10345 20.5665 1.79095 20.2987 1.58262C20.0382 1.36684 19.6513 1.25896 19.138 1.25896H17.3969V3.79243Z" fill="#7A8FAD"/>
</svg>
