<svg width="24" height="24" viewBox="0 0 24 24" fill="none" xmlns="http://www.w3.org/2000/svg">
<path d="M11.9142 12.0336C13.0384 12.0336 13.9751 11.6609 14.8182 10.9154C15.7549 10.1697 16.2233 8.95812 16.2233 7.74654C16.2233 6.81455 15.9423 5.88257 15.3803 5.23018C14.6308 4.1118 13.413 3.36621 11.9142 3.36621C9.57231 3.36621 7.6051 5.32338 7.6051 7.65334C7.6051 10.0765 9.57231 12.0336 11.9142 12.0336Z" fill="#7A8FAD"/>
<path d="M14.3965 14.271C14.1155 14.271 13.9281 14.1777 13.6471 14.1777H10.0874C7.37079 14.1777 5.12256 16.4146 5.12256 19.1173C5.12256 19.7697 5.40359 20.2357 5.87197 20.6085C6.62138 21.0745 8.40123 21.6335 11.8673 21.6335C15.3333 21.6335 17.0194 21.0745 17.8625 20.6085C17.8625 20.6085 17.9562 20.5153 18.0499 20.5153C18.4246 20.2357 18.7056 19.7697 18.7056 19.1173C18.6119 16.6942 16.8321 14.6438 14.3965 14.271Z" fill="#7A8FAD"/>
</svg>
